<?xml version="1.0" encoding="UTF-8" standalone="no"?>
<!-- Created with Inkscape (http://www.inkscape.org/) -->

<svg
   xmlns:dc="http://purl.org/dc/elements/1.1/"
   xmlns:cc="http://creativecommons.org/ns#"
   xmlns:rdf="http://www.w3.org/1999/02/22-rdf-syntax-ns#"
   xmlns:svg="http://www.w3.org/2000/svg"
   xmlns="http://www.w3.org/2000/svg"
   xmlns:sodipodi="http://sodipodi.sourceforge.net/DTD/sodipodi-0.dtd"
   xmlns:inkscape="http://www.inkscape.org/namespaces/inkscape"
   width="1920"
   height="1080"
   id="svg2985"
   version="1.1"
   inkscape:version="0.48.4 r9939"
   sodipodi:docname="landscape.svg"
   inkscape:export-filename="C:\Users\Thomas\Pictures\Projekter\landscape.png"
   inkscape:export-xdpi="114.07066"
   inkscape:export-ydpi="114.07066">
  <defs
     id="defs2987" />
  <sodipodi:namedview
     id="base"
     pagecolor="#ffffff"
     bordercolor="#666666"
     borderopacity="1.0"
     inkscape:pageopacity="0.0"
     inkscape:pageshadow="2"
     inkscape:zoom="0.6"
     inkscape:cx="1756.0359"
     inkscape:cy="345.68509"
     inkscape:document-units="px"
     inkscape:current-layer="layer2"
     showgrid="false"
     showguides="true"
     inkscape:guide-bbox="true"
     inkscape:window-width="1920"
     inkscape:window-height="1017"
     inkscape:window-x="-8"
     inkscape:window-y="-8"
     inkscape:window-maximized="1">
    <sodipodi:guide
       orientation="1,0"
       position="0,196.66667"
       id="guide2997" />
  </sodipodi:namedview>
  <metadata
     id="metadata2990">
    <rdf:RDF>
      <cc:Work
         rdf:about="">
        <dc:format>image/svg+xml</dc:format>
        <dc:type
           rdf:resource="http://purl.org/dc/dcmitype/StillImage" />
        <dc:title></dc:title>
      </cc:Work>
    </rdf:RDF>
  </metadata>
  <g
     inkscape:groupmode="layer"
     id="layer2"
     inkscape:label="bg2"
     style="display:inline">
    <g
       id="g3393"
       transform="translate(0,-1.2812)">
      <path
         sodipodi:nodetypes="czzzzzzcccc"
         inkscape:connector-curvature="0"
         id="path2993-1-7-5"
         d="m 1873.441,797.41884 c -107.5574,32.77288 -14.9383,41.18093 -112.1256,42.80596 -97.1872,1.62503 -61.062,37.4402 -107.4079,24.69372 -46.3459,-12.74648 -51.364,-56.4844 -124.6853,-40.14717 -73.3213,16.33723 -49.3578,21.20891 -102.6345,33.81131 -53.2767,12.6024 -91.6887,-14.81307 -133.2598,-3.52115 -41.5711,11.29192 -127.1108,23.98881 -188.8507,17.93977 C 1042.7374,866.95223 960,848.04471 960,848.04471 l -0.0217,142.78468 959.99997,5.61287 1.1558,-201.5719"
         style="fill:#808080;stroke:none;display:inline" />
      <path
         sodipodi:nodetypes="czzzzzzzc"
         inkscape:connector-curvature="0"
         id="path3152-4-1"
         d="m 1920.4384,492.18574 c -69.8203,4.55846 -84.9077,95.61182 -190.4658,34.00211 -105.558,-61.60969 -73.4638,-6.60903 -159.46,-29.18354 -85.996,-22.57449 -30.8134,-22.85321 -107.8039,-25.94093 -76.9904,-3.08771 -87.7283,-32.87507 -83.0989,-81.06535 4.6295,-48.19032 49.4101,-97.27847 110.0499,-97.27847 60.6397,0 31.8799,-55.88399 130.7002,-20.21522 98.8202,35.66876 63.5542,-24.2657 112.58,-10.66877 49.026,13.59694 153.5254,-52.42619 188.5148,0.66877"
         style="fill:#666666;stroke:none;display:inline" />
      <path
         sodipodi:nodetypes="zzzzzzzzzzzz"
         inkscape:connector-curvature="0"
         id="path3152-4-5-7"
         d="m 1025.9851,430.68849 c 3.1573,31.65413 33.6978,63.898 75.0541,63.898 41.3563,0 13.7854,57.50823 81.1809,34.07896 67.3955,-23.42925 61.5307,32.36051 94.9664,23.42927 33.4356,-8.93123 84.2443,21.29935 119.4738,-23.42927 35.2295,-44.72862 60.1178,18.24938 85.7761,-12.77959 25.6583,-31.02898 79.6492,-83.06744 30.6343,-129.92596 -49.0149,-46.85853 -62.6661,-18.30507 -110.2835,-21.29934 -47.6175,-2.99426 -65.8638,-63.89802 -137.8545,-23.42928 -71.9906,40.46874 -36.7691,-5.65881 -95.4185,9.1694 -58.6493,14.82821 -9.3481,8.34463 -61.8556,10.37281 -52.5076,2.02818 -84.8308,38.26089 -81.6735,69.915 z"
         style="fill:#666666;stroke:none;display:inline" />
      <path
         sodipodi:nodetypes="czzzzzzcccc"
         inkscape:connector-curvature="0"
         id="path2993-1-1"
         d="m 1869.5011,870.88246 c -113.45,-13.18906 -85.0568,45.00242 -180.8633,27.48531 -95.8066,-17.51711 -70.051,6.74985 -136.3969,9.00337 -66.346,2.25352 -31.3641,-16.48441 -106.352,-13.48051 -74.988,3.0039 -59.3579,27.87558 -127.6345,-4.52202 -68.2767,-32.3976 -123.3554,13.52026 -164.9265,24.81218 -41.5711,11.29192 -48.7775,0.65548 -110.5173,-5.39356 C 981.07083,902.73818 960,906.08658 960,906.08658 l -0.0217,142.19542 958.84417,3.9462 1.1558,-201.57189"
         style="fill:#333333;stroke:none;display:inline" />
      <path
         sodipodi:nodetypes="zzzzzzzzzzzz"
         inkscape:connector-curvature="0"
         id="path3152-1"
         d="m 1240.8108,328.11808 c 2.2769,-25.46884 24.3013,-51.41218 54.1257,-51.41218 29.8243,0 9.9414,-46.27096 58.5441,-27.41984 48.6026,18.85112 44.3732,-26.03716 68.4855,-18.85112 24.1124,7.18605 60.7533,-17.1374 86.1593,18.85112 25.4059,35.98853 43.3542,-14.68338 61.8579,10.28244 18.5036,24.96583 57.4395,66.83585 22.0921,104.53809 -35.3474,37.70225 -45.192,14.72822 -79.5316,17.1374 -34.3396,2.40916 -47.4981,51.41218 -99.4146,18.85112 -51.9164,-32.56102 -36.1316,-3.49291 -78.4269,-15.42363 -42.2953,-11.93074 -15.1549,-12.07805 -53.0211,-13.70994 -37.8661,-1.63186 -43.1473,-17.37464 -40.8704,-42.84346 z"
         style="fill:#333333;stroke:none;display:inline" />
      <path
         sodipodi:nodetypes="zzzzzzzzzzzz"
         inkscape:connector-curvature="0"
         id="path3152-2-5"
         d="m 1642.2312,395.20697 c -1.1512,-19.62259 -12.2862,-39.61075 -27.3647,-39.61075 -15.0785,0 -5.0262,-35.64968 -29.5985,-21.12574 -24.5724,14.52394 -22.4341,-20.06047 -34.6247,-14.52394 -12.1907,5.53653 -30.7155,-13.20358 -43.5601,14.52394 -12.8447,27.72752 -21.9189,-11.31288 -31.274,7.92215 -9.355,19.23502 -29.0401,51.49397 -11.1693,80.54184 17.8709,29.04788 22.8481,11.34741 40.2094,13.20359 17.3613,1.85615 12.4867,12.05335 39.8872,7.63459 27.4005,-4.41876 28.6418,4.19822 50.0254,-4.99388 21.3835,-9.19209 7.6619,-9.30559 26.8062,-10.56286 19.1442,-1.25729 21.8142,-13.38638 20.6631,-33.00894 z"
         style="fill:#333333;stroke:none;display:inline" />
      <path
         inkscape:connector-curvature="0"
         id="path2993-2"
         d="m 1892.9375,296.1875 c -16.7609,0.23177 -37.9038,4.69172 -53.125,22.59375 -6.1804,7.26894 -67.8823,-43.31037 -99.2812,25.4375 -20.1833,44.19147 0.6553,89.88037 -8.3125,98.5 C 1714.2833,459.95801 1644.2658,510.89351 1693,592 c 64.5023,107.34876 95.6588,55.25261 119.9375,68.9375 90.5846,51.05881 54.5673,245.90217 0.4063,285.65625 -76.7833,50.14427 -93.4018,-5.00372 -145.875,-4.1875 -52.4733,0.81621 -31.6957,25.09023 -76.375,7.34375 -44.6792,-17.74649 -48.0537,-16.5039 -86.375,-3.5 -38.3213,13.0039 -27.6817,46.2101 -87.625,13.8125 -59.9433,-32.39761 -131.6789,-4.79192 -173.25,6.5 -41.5712,11.29192 -109.9405,-29.12742 -155.5313,-15.40625 -45.5909,13.72117 -128.34375,11.21875 -128.34375,11.21875 l 0,118.2812 991.66675,0.625 L 1958.3021,884 c 0,0 -5.795,-584.68329 -13.3333,-584.90625 -0.8835,-0.0261 -37.2423,-3.11075 -52.0313,-2.90625 z m -53.125,354.90625 c 5.0918,-0.0317 12.9757,4.79285 18.0625,12.46875 8.139,12.28144 11.8166,21.87721 10.5,30.78125 -1.3166,8.90405 3.5625,24.75 3.5625,24.75 -15.6316,-48.52326 -36.4916,-49.485 -37.0625,-62.28125 -0.1756,-3.93644 1.8824,-5.69972 4.9375,-5.71875 z"
         style="fill:#000000;stroke:none;display:inline"
         sodipodi:nodetypes="sssssscsssssscccccsssscss" />
    </g>
  </g>
  <g
     id="layer1"
     inkscape:label="bg1"
     inkscape:groupmode="layer"
     style="display:inline">
    <g
       id="g3384"
       transform="translate(0,0.0625)">
      <path
         sodipodi:nodetypes="czzzzzzcccc"
         inkscape:connector-curvature="0"
         id="path2993-1-7"
         d="m 47.89226,796.08551 c 107.55741,32.77288 66.605,54.51426 110.4589,56.13929 43.85391,1.62502 36.06193,-15.89313 109.07457,11.36039 73.01263,27.25352 66.36403,-28.15107 139.68533,-11.81384 73.3213,16.33723 61.02454,7.87558 122.6345,-7.85535 61.60996,-15.73093 56.6887,-1.47974 98.2598,9.81218 41.5711,11.29192 115.44413,-16.01119 177.18397,-22.06023 61.73984,-6.04905 157.75695,16.22194 157.75695,16.22194 L 961.355,989.49606 1.3549979,995.10893 0.199199,793.53703"
         style="fill:#808080;stroke:none;display:inline" />
      <path
         sodipodi:nodetypes="zzzzzzzzzzzz"
         inkscape:connector-curvature="0"
         id="path3152-4"
         d="m 536.98815,311.79721 c -3.29209,-23.7354 -35.13621,-47.91301 -78.25792,-47.91301 -43.12171,0 -14.3739,-43.12171 -84.6463,-25.55362 -70.27241,17.56809 -64.15728,-24.26505 -99.02021,-17.56809 -34.86294,6.69695 -87.84051,-15.97101 -124.57382,17.56809 -36.73331,33.53912 -62.68406,-13.68402 -89.43762,9.5826 -26.75358,23.26663 -83.049215,62.28693 -31.94201,97.42312 51.10721,35.1362 65.34111,13.72579 114.99122,15.971 49.65011,2.2452 68.67532,47.91302 143.73903,17.56811 75.06371,-30.3449 52.24115,-3.25518 113.39411,-14.3739 61.15294,-11.11872 21.91186,-11.256 76.6608,-12.77681 54.74894,-1.5208 62.38478,-16.19211 59.09272,-39.92749 z"
         style="fill:#666666;stroke:none;display:inline" />
      <path
         sodipodi:nodetypes="zzzzzzzzzzzz"
         inkscape:connector-curvature="0"
         id="path3152-4-5"
         d="m 895.34817,269.11495 c -3.15732,37.70964 -33.69776,76.12184 -75.05408,76.12184 -41.35633,0 -13.78544,68.50968 -81.18092,40.59834 -67.39549,-27.91132 -61.53072,38.55114 -94.96637,27.91134 -33.43567,-10.6398 -84.24437,25.37396 -119.47384,-27.91134 -35.22946,-53.28531 -60.1178,21.74052 -85.77608,-15.22436 -25.65831,-36.96489 -79.64923,-98.95843 -30.63432,-154.78108 49.0149,-55.82267 62.66607,-21.80686 110.28353,-25.37394 47.61747,-3.56707 65.8638,-76.12186 137.85443,-27.91136 71.99064,48.2105 50.10243,5.17167 108.75181,22.83655 58.64937,17.66488 21.0148,17.88299 73.52234,20.29917 52.50755,2.41618 59.83078,25.72523 56.6735,63.43484 z"
         style="fill:#666666;stroke:none;display:inline" />
      <path
         sodipodi:nodetypes="czzzzzzcccc"
         inkscape:connector-curvature="0"
         id="path2993-1"
         d="m 51.8322,869.54913 c 113.44997,-13.18906 85.05677,45.00242 180.8633,27.48531 95.80653,-17.51711 70.05093,6.74985 136.3969,9.00337 66.34597,2.25352 31.36403,-16.48441 106.352,-13.48051 74.98797,3.0039 59.35787,27.87558 127.6345,-4.52202 68.27663,-32.3976 123.35537,13.52026 164.92647,24.81218 41.5711,11.29192 48.77746,0.65548 110.5173,-5.39356 61.73983,-6.04905 93.26244,-2.70065 93.26244,-2.70065 L 961.355,1046.9487 2.5107979,1050.8949 1.3549979,849.32298"
         style="fill:#333333;stroke:none;display:inline" />
      <path
         sodipodi:nodetypes="zzzzzzzzzzzz"
         inkscape:connector-curvature="0"
         id="path3152"
         d="m 239.52575,270.03663 c 3.29209,-23.7354 35.13621,-47.913 78.25792,-47.913 43.12172,0 14.3739,-43.12171 84.64632,-25.55361 70.27241,17.56809 64.15728,-24.26506 99.02021,-17.5681 34.86294,6.69696 87.84051,-15.97101 124.57382,17.5681 36.73331,33.5391 62.68405,-13.68403 89.43761,9.5826 26.75358,23.26661 83.04922,62.28691 31.94201,97.42311 -51.10721,35.1362 -65.3411,13.72579 -114.99121,15.971 -49.65011,2.2452 -68.67532,47.91302 -143.73903,17.56811 -75.06371,-30.3449 -52.24115,-3.25518 -113.39411,-14.3739 -61.15296,-11.11872 -21.91187,-11.256 -76.66082,-12.77681 -54.74894,-1.5208 -62.38478,-16.19211 -59.09272,-39.9275 z"
         style="fill:#333333;stroke:none;display:inline" />
      <path
         sodipodi:nodetypes="zzzzzzzzzzzz"
         inkscape:connector-curvature="0"
         id="path3152-2"
         d="m 800.64366,313.9206 c -1.66441,-18.28705 -17.76405,-36.9148 -39.56539,-36.9148 -21.80133,0 -7.26711,-33.22332 -42.79521,-19.6879 -35.52809,13.53542 -32.43643,-18.69512 -50.06231,-13.53542 -17.6259,5.1597 -44.41013,-12.30494 -62.98163,13.53542 -18.57151,25.84036 -31.6916,-10.54292 -45.21758,7.38296 -13.52599,17.92587 -41.98777,47.98924 -16.14914,75.06009 25.83862,27.07084 33.03494,10.57509 58.13688,12.30493 25.10195,1.72982 18.05398,11.23299 57.67112,7.11498 39.61714,-4.11801 41.41191,3.91248 72.32943,-4.65399 30.91751,-8.56647 11.07813,-8.67224 38.75792,-9.84395 27.67979,-1.17171 31.5403,-12.47529 29.87591,-30.76232 z"
         style="fill:#333333;stroke:none;display:inline" />
      <path
         inkscape:connector-curvature="0"
         id="path2993"
         d="m 25.5,294.84375 c -13.348991,0.1917 -78.008827,12.88188 -78.833333,12.90625 -7.538338,0.22296 1.666666,575.52083 1.666666,575.52083 l -11.989583,196.66667 1025,-0.625 12.37437,-118.25 c 0,0 -95.12728,2.50242 -140.71812,-11.21875 -45.59084,-13.72117 -113.92888,26.66692 -155.5,15.375 C 635.92889,953.92683 564.19328,926.35239 504.25,958.75 444.30671,991.1476 454.91506,957.9414 416.59375,944.9375 378.27244,931.9336 374.92923,930.65976 330.25,948.40625 285.57077,966.15273 306.31702,941.87871 253.84375,941.0625 201.37048,940.24628 184.7833,995.39427 108,945.25 53.839,905.49592 17.79044,710.65256 108.375,659.59375 c 24.27867,-13.68489 55.43522,38.41126 119.9375,-68.9375 48.73417,-81.10649 -21.25195,-132.01074 -39.1875,-149.25 -8.96777,-8.61963 11.87083,-54.33978 -8.3125,-98.53125 C 149.41366,274.12712 87.71165,324.70645 81.53125,317.4375 65.414753,298.48241 42.662989,294.59728 25.5,294.84375 z M 81.53125,649.75 c 3.055057,0.019 5.081862,1.78231 4.90625,5.71875 -0.57086,12.79625 -21.43087,13.78924 -37.0625,62.3125 0,0 4.91034,-15.84595 3.59375,-24.75 -1.3166,-8.90404 2.3298,-18.53106 10.46875,-30.8125 5.08685,-7.6759 13.001989,-12.50047 18.09375,-12.46875 z"
         clip-path="none"
         style="fill:#000000;stroke:none;display:inline"
         sodipodi:nodetypes="scccccsssssscsssssscscssc" />
    </g>
  </g>
</svg>
